<?xml version="1.0" encoding="UTF-8"?>
<svg xmlns="http://www.w3.org/2000/svg" viewBox="0 0 1008.67 236.35">
  <rect x="7" y="7" width="994.67" height="222.35" rx="37" ry="37" fill="#fff" stroke="#333" stroke-miterlimit="10" stroke-width="14"/>
  <g fill="#333">
    <path d="M148.07,89.37h-25.04v9.77l9.43,1.97v41.12c-1.54,3.08-3.71,5.44-6.51,7.09-2.81,1.65-6.27,2.48-10.38,2.48-4.48,0-7.79-1.36-9.94-4.07s-3.22-7.53-3.22-14.45v-43.9h-23.88v9.77l8.28,1.97v32.03c0,10.63,2.23,18.47,6.68,23.51s10.62,7.57,18.49,7.57c4.66,0,8.78-1.02,12.35-3.05,3.57-2.04,6.51-4.93,8.82-8.69l1.02,10.31h22.46v-9.7l-8.55-1.97v-61.76Z"/>
    <polygon points="190.54 56.94 164.08 56.94 164.08 66.71 175 68.67 175 151.11 164.42 153.08 164.42 162.78 201.13 162.78 201.13 153.08 190.54 151.11 190.54 56.94"/>
    <path d="M253.37,88.01c-3.85,0-7.23,1.05-10.14,3.15-2.92,2.1-5.37,5.06-7.36,8.85l-.14-1.36-1.02-9.3h-25.1v9.77l10.92,1.97v50.01l-10.58,1.97v9.7h36.71v-9.7l-10.52-1.97v-39.63c1.31-2.71,3.05-4.85,5.22-6.41,2.17-1.56,4.89-2.25,8.14-2.07l9.5.54,1.9-14.45c-.81-.27-1.95-.52-3.39-.75-1.45-.23-2.83-.34-4.14-.34v.02Z"/>
    <polygon points="294.22 89.37 267.69 89.37 267.69 99.14 278.61 101.11 278.61 151.11 268.1 153.08 268.1 162.78 304.73 162.78 304.73 153.08 294.22 151.11 294.22 89.37"/>
    <rect x="277.93" y="56.94" width="16.28" height="15.2"/>
    <path d="M362.07,139.31c-.72,4.03-2.43,7.17-5.12,9.43s-6.12,3.39-10.28,3.39c-3.57,0-6.69-.97-9.36-2.92-2.67-1.94-4.74-4.76-6.21-8.45s-2.2-8.15-2.2-13.4v-2.58c0-4.79.75-9.06,2.24-12.79s3.64-6.67,6.45-8.82c2.8-2.15,6.13-3.22,9.97-3.22,2.62,0,4.99.42,7.09,1.26,2.1.84,3.83,1.96,5.19,3.36l2.44,12.96h12.01l-.2-18.79c-2.99-3.17-6.77-5.74-11.36-7.74-4.59-1.99-9.96-2.99-16.11-2.99-6.83,0-12.75,1.61-17.74,4.82-5,3.21-8.84,7.58-11.53,13.1s-4.04,11.81-4.04,18.86v2.58c0,7.24,1.37,13.63,4.11,19.17s6.6,9.87,11.6,12.99c5,3.12,10.89,4.68,17.68,4.68,6.2,0,11.38-1.09,15.54-3.26s7.38-5.11,9.67-8.82c2.28-3.71,3.63-7.85,4.04-12.42l-.14-.41h-13.74Z"/>
    <path d="M455.97,117.26c0-9.95-2.16-17.31-6.48-22.09-4.32-4.77-10.32-7.16-18.01-7.16-4.43,0-8.45.96-12.04,2.88-3.6,1.92-6.62,4.63-9.06,8.11v-42.07h-26.46v9.77l10.92,1.97v82.44l-10.58,1.97v9.7h36.3v-9.7l-10.18-1.97v-42.07c1.76-2.67,4-4.77,6.72-6.31,2.71-1.54,5.74-2.31,9.09-2.31,4.7,0,8.25,1.33,10.65,4s3.6,6.9,3.6,12.69v33.99l-10.25,1.97v9.7h36.37v-9.7l-10.58-1.97v-33.86.02Z"/>
    <rect x="479.38" y="147.79" width="15.61" height="14.99"/>
    <path d="M572.61,56.94h-26.53v9.77l10.92,1.97v28.63c-2.31-2.99-5.07-5.28-8.28-6.89-3.21-1.6-6.94-2.41-11.2-2.41-5.93,0-11.02,1.63-15.27,4.89s-7.51,7.83-9.77,13.71-3.39,12.73-3.39,20.56v1.43c0,7.1,1.13,13.32,3.39,18.66,2.26,5.34,5.51,9.5,9.74,12.48s9.31,4.48,15.23,4.48c4.48,0,8.4-.87,11.77-2.61s6.23-4.29,8.58-7.63l1.22,8.82h24.09v-9.7l-10.52-1.97V56.94h.02ZM557.01,142.63c-1.63,2.94-3.7,5.2-6.21,6.78s-5.53,2.38-9.06,2.38c-5.88,0-10.19-2.1-12.92-6.31-2.74-4.21-4.11-9.84-4.11-16.89v-1.43c0-5.29.61-9.94,1.83-13.94,1.22-4,3.1-7.13,5.63-9.4,2.53-2.26,5.77-3.39,9.7-3.39,3.44,0,6.42.81,8.96,2.44,2.53,1.63,4.59,3.87,6.17,6.72v33.04h0Z"/>
    <polygon points="616.99 89.37 590.46 89.37 590.46 99.14 601.38 101.11 601.38 151.11 590.86 153.08 590.86 162.78 627.5 162.78 627.5 153.08 616.99 151.11 616.99 89.37"/>
    <rect x="600.7" y="56.94" width="16.28" height="15.2"/>
    <path d="M691.28,89.37h-4.75l-1.29,9.23c-2.31-3.44-5.15-6.06-8.52-7.87-3.37-1.81-7.32-2.71-11.84-2.71-6.02,0-11.17,1.63-15.47,4.89s-7.6,7.83-9.91,13.71-3.46,12.73-3.46,20.56v1.43c0,7.1,1.15,13.32,3.46,18.66,2.31,5.34,5.62,9.5,9.94,12.48,4.32,2.99,9.47,4.48,15.44,4.48,4.16,0,7.85-.77,11.06-2.31s5.97-3.8,8.28-6.78v6.24c0,5.88-1.33,10.43-4,13.64s-6.88,4.82-12.62,4.82c-3.17,0-6.47-.42-9.91-1.26s-6.51-1.91-9.23-3.22l-3.53,11.67c3.26,1.67,7.03,3,11.33,3.97s8.23,1.46,11.81,1.46c6.69,0,12.42-1.26,17.17-3.77,4.75-2.51,8.38-6.08,10.89-10.72s3.77-10.14,3.77-16.52v-60.46l8.89-1.9v-9.7h-17.51v-.02ZM684.23,142.63c-1.58,2.94-3.62,5.2-6.11,6.78s-5.52,2.38-9.09,2.38c-5.97,0-10.36-2.1-13.16-6.31-2.81-4.21-4.21-9.84-4.21-16.89v-1.43c0-5.25.63-9.87,1.9-13.88,1.27-4,3.19-7.15,5.77-9.43s5.86-3.43,9.84-3.43c3.48,0,6.48.81,8.99,2.44,2.51,1.63,4.53,3.85,6.07,6.65v33.11h0Z"/>
    <polygon points="740.88 89.37 714.35 89.37 714.35 99.14 725.28 101.11 725.28 151.11 714.76 153.08 714.76 162.78 751.4 162.78 751.4 153.08 740.88 151.11 740.88 89.37"/>
    <rect x="724.6" y="56.94" width="16.28" height="15.2"/>
    <path d="M795.3,151.86c-1.72.27-3.28.41-4.68.41-2.26,0-4.06-.77-5.39-2.31s-2-3.94-2-7.19v-42.07h15.13v-11.33h-15.13v-17.78h-15.54v17.78h-11.13v11.33h11.13v42.07c0,7.42,1.67,12.81,5.02,16.18,3.35,3.37,7.98,5.05,13.91,5.05,2.4,0,4.93-.21,7.6-.64s5-.94,6.99-1.53l-1.83-10.65c-1,.18-2.35.41-4.07.68h0Z"/>
    <path d="M869.97,149.45c-.02-.93-.03-1.87-.03-2.82v-33.59c0-8.05-2.62-14.24-7.87-18.56s-12.44-6.48-21.58-6.48c-5.38,0-10.29.69-14.72,2.07s-8.39,3.31-11.87,5.8l.07,17.57h11.67l1.49-10.04c1.67-1.18,3.55-2.1,5.63-2.78s4.48-1.02,7.19-1.02c4.61,0,8.16,1.19,10.65,3.56,2.49,2.37,3.73,5.62,3.73,9.74v6.58h-11.94c-10.36,0-18.38,2.13-24.05,6.38-5.68,4.25-8.52,9.86-8.52,16.83s2.05,12.01,6.14,15.81,9.89,5.7,17.4,5.7c4.39,0,8.39-1.03,12.01-3.09s6.69-4.67,9.23-7.84c.09,1.54.31,3.08.64,4.61.34,1.54.73,3.17,1.19,4.89h21.03v-9.7l-7.33-.88c-.09-.9-.15-1.82-.17-2.75h0ZM854.33,142.36c-1.54,2.67-3.94,4.91-7.19,6.72-3.26,1.81-6.81,2.71-10.65,2.71-3.62,0-6.37-.8-8.24-2.41-1.88-1.61-2.82-3.9-2.82-6.89,0-3.35,1.39-6.32,4.17-8.92,2.78-2.6,6.93-3.9,12.45-3.9h12.28v12.69h0Z"/>
    <polygon points="911.93 151.11 911.93 56.94 885.47 56.94 885.47 66.71 896.4 68.67 896.4 151.11 885.81 153.08 885.81 162.78 922.52 162.78 922.52 153.08 911.93 151.11"/>
  </g>
</svg>
